<svg width="66" height="60" viewBox="0 0 66 60" fill="none" xmlns="http://www.w3.org/2000/svg">
<path d="M65.276 9.45311H53.1875C48.8958 9.45311 44.599 9.49478 40.3073 9.42707C39.1094 9.40623 38.3125 9.79165 37.5885 10.7239C36.1354 12.6094 34.5729 14.4114 32.875 16.4739C31.4844 14.8073 30.026 13.3333 28.8958 11.6354C27.6875 9.82811 26.1823 9.37498 24.0938 9.41144C17.0052 9.53123 9.90625 9.45832 2.80729 9.45832H0.421875C3.19271 6.40623 5.63021 3.67707 8.14063 1.0104C8.4375 0.692692 9.11979 0.6354 9.61979 0.6354C25.0625 0.614568 40.5104 0.609358 55.9531 0.645817C56.5938 0.645817 57.4323 0.869775 57.849 1.30727C60.2708 3.84373 62.5886 6.47915 65.276 9.45311ZM20.9427 17.3542C24.8646 21.2656 28.7865 25.1823 32.6094 29C36.651 25.0156 40.6198 21.1042 44.5938 17.1875C44.7448 17.276 44.8958 17.3646 45.0469 17.4479C41.0521 31.5312 37.0625 45.6198 33.0729 59.6979C32.9323 59.7187 32.7969 59.7344 32.6615 59.7552C28.6615 45.6562 24.6615 31.5573 20.6615 17.4583L20.9427 17.3542ZM64.3542 16.6927C54.6458 30.4375 45.1979 43.8125 35.75 57.1875C35.6615 57.1458 35.5729 57.1042 35.4844 57.0625C36.3281 55.0573 37.1667 53.0417 38.026 51.0364C42.7292 40.0937 47.4479 29.1614 52.1146 18.2031C52.5729 17.1302 53.0677 16.625 54.3177 16.6614C57.5156 16.7552 60.724 16.6927 64.3542 16.6927ZM1.36458 16.6979C5.17187 16.6979 8.51042 16.6614 11.8438 16.7396C12.349 16.7552 13.1042 17.2135 13.2969 17.6562C18.9531 30.7135 24.5521 43.7969 30.1563 56.8802C30.1927 56.9635 30.125 57.0937 30.0833 57.3542C20.5469 43.8489 11.0729 30.4427 1.36458 16.6979Z" fill="#EF0A0A"/>
</svg>
