<?xml version="1.0" encoding="UTF-8"?>
<!DOCTYPE svg PUBLIC "-//W3C//DTD SVG 1.1//EN" "http://www.w3.org/Graphics/SVG/1.1/DTD/svg11.dtd">
<svg xmlns="http://www.w3.org/2000/svg" version="1.1" width="981px" height="657px" style="shape-rendering:geometricPrecision; text-rendering:geometricPrecision; image-rendering:optimizeQuality; fill-rule:evenodd; clip-rule:evenodd" xmlns:xlink="http://www.w3.org/1999/xlink">
<g><path style="opacity:1" fill="#333333" d="M 25.5,369.5 C 25.8412,365.84 25.1745,362.507 23.5,359.5C 16.7731,237.152 62.4397,140.319 160.5,69C 253.676,10.3152 352.01,0.315175 455.5,39C 543.752,77.7178 603.586,142.551 635,233.5C 639.97,266.692 628.136,291.525 599.5,308C 557.419,329.541 515.753,351.874 474.5,375C 459.398,384.438 446.565,396.271 436,410.5C 427.612,425.189 426.279,440.523 432,456.5C 440.381,478.551 454.881,495.385 475.5,507C 500.031,530.99 505.198,558.823 491,590.5C 485.863,598.281 479.697,605.115 472.5,611C 429.813,632.658 384.313,643.491 336,643.5C 241.039,641.128 162.039,605.128 99,535.5C 58.3107,487.531 33.8107,432.197 25.5,369.5 Z M 255.5,83.5 C 256.167,83.5 256.833,83.5 257.5,83.5C 257.918,84.2216 258.584,84.7216 259.5,85C 263.863,85.3694 268.196,85.8694 272.5,86.5C 272.833,86.5 273.167,86.5 273.5,86.5C 274.486,88.4077 276.152,89.4077 278.5,89.5C 278.833,89.5 279.167,89.5 279.5,89.5C 280.486,91.4077 282.152,92.4077 284.5,92.5C 284.821,94.0481 285.821,94.7148 287.5,94.5C 287.5,95.1667 287.833,95.5 288.5,95.5C 290.5,98.8333 293.167,101.5 296.5,103.5C 296.5,103.833 296.5,104.167 296.5,104.5C 296.5,106.5 297.5,107.5 299.5,107.5C 299.5,107.833 299.5,108.167 299.5,108.5C 299.592,110.848 300.592,112.514 302.5,113.5C 302.5,113.833 302.5,114.167 302.5,114.5C 302.661,117.68 303.661,120.347 305.5,122.5C 305.5,123.5 305.5,124.5 305.5,125.5C 305.5,131.5 305.5,137.5 305.5,143.5C 305.5,143.833 305.5,144.167 305.5,144.5C 304.883,144.611 304.383,144.944 304,145.5C 303.56,147.866 303.06,150.199 302.5,152.5C 302.5,152.833 302.5,153.167 302.5,153.5C 300.592,154.486 299.592,156.152 299.5,158.5C 299.5,158.833 299.5,159.167 299.5,159.5C 298.167,159.5 297.5,160.167 297.5,161.5C 296.89,162.391 296.557,163.391 296.5,164.5C 294.5,164.5 293.5,165.5 293.5,167.5C 291.856,167.81 290.856,168.81 290.5,170.5C 288.81,170.856 287.81,171.856 287.5,173.5C 287.167,173.5 286.833,173.5 286.5,173.5C 284.77,174.026 283.436,175.026 282.5,176.5C 280.02,177.242 277.687,178.242 275.5,179.5C 272.895,179.621 270.895,180.621 269.5,182.5C 268.5,182.5 267.5,182.5 266.5,182.5C 259.504,183.768 252.504,183.768 245.5,182.5C 244.833,182.5 244.167,182.5 243.5,182.5C 241.718,180.643 239.385,179.643 236.5,179.5C 236.167,179.5 235.833,179.5 235.5,179.5C 234.514,177.592 232.848,176.592 230.5,176.5C 230.167,176.5 229.833,176.5 229.5,176.5C 228.215,174.548 226.549,172.882 224.5,171.5C 222.284,170.034 220.284,168.367 218.5,166.5C 218.446,164.368 217.446,163.035 215.5,162.5C 215.5,161.833 215.167,161.5 214.5,161.5C 214.715,159.821 214.048,158.821 212.5,158.5C 212.614,155.784 211.614,153.784 209.5,152.5C 209.675,150.379 209.341,148.379 208.5,146.5C 208.975,143.918 208.308,141.918 206.5,140.5C 206.5,136.167 206.5,131.833 206.5,127.5C 208.256,126.448 208.923,124.781 208.5,122.5C 208.833,120.5 209.167,118.5 209.5,116.5C 209.5,116.167 209.5,115.833 209.5,115.5C 211.408,114.514 212.408,112.848 212.5,110.5C 212.5,110.167 212.5,109.833 212.5,109.5C 213.974,108.564 214.974,107.23 215.5,105.5C 215.5,105.167 215.5,104.833 215.5,104.5C 217.144,104.19 218.144,103.19 218.5,101.5C 219.906,101.027 220.573,100.027 220.5,98.5C 220.833,98.5 221.167,98.5 221.5,98.5C 223.19,98.1436 224.19,97.1436 224.5,95.5C 226.5,95.5 227.5,94.5 227.5,92.5C 227.833,92.5 228.167,92.5 228.5,92.5C 230.632,92.4456 231.965,91.4456 232.5,89.5C 232.833,89.5 233.167,89.5 233.5,89.5C 236.105,89.3794 238.105,88.3794 239.5,86.5C 239.833,86.5 240.167,86.5 240.5,86.5C 242.292,86.634 243.958,86.3007 245.5,85.5C 248.187,85.6641 250.854,85.4974 253.5,85C 254.416,84.7216 255.082,84.2216 255.5,83.5 Z M 425.5,85.5 C 430.066,86.8044 434.732,88.1378 439.5,89.5C 439.833,89.5 440.167,89.5 440.5,89.5C 440.821,91.0481 441.821,91.7148 443.5,91.5C 443.5,92.1667 443.833,92.5 444.5,92.5C 445.436,93.9744 446.77,94.9744 448.5,95.5C 448.833,95.5 449.167,95.5 449.5,95.5C 449.5,97.5 450.5,98.5 452.5,98.5C 452.5,100.5 453.5,101.5 455.5,101.5C 455.5,103.5 456.5,104.5 458.5,104.5C 458.557,105.609 458.89,106.609 459.5,107.5C 459.5,108.833 460.167,109.5 461.5,109.5C 461.5,109.833 461.5,110.167 461.5,110.5C 461.592,112.848 462.592,114.514 464.5,115.5C 464.5,115.833 464.5,116.167 464.5,116.5C 464.518,119.736 465.518,122.403 467.5,124.5C 467.5,125.167 467.5,125.833 467.5,126.5C 467.5,132.167 467.5,137.833 467.5,143.5C 467.5,143.833 467.5,144.167 467.5,144.5C 466.883,144.611 466.383,144.944 466,145.5C 465.56,147.866 465.06,150.199 464.5,152.5C 464.5,153.167 464.5,153.833 464.5,154.5C 462.799,155.211 461.799,156.545 461.5,158.5C 461.5,158.833 461.5,159.167 461.5,159.5C 459.75,160.659 458.75,162.326 458.5,164.5C 456.952,164.821 456.285,165.821 456.5,167.5C 454.167,169.5 451.833,171.5 449.5,173.5C 447.5,173.5 446.5,174.5 446.5,176.5C 446.167,176.5 445.833,176.5 445.5,176.5C 443.368,176.554 442.035,177.554 441.5,179.5C 441.167,179.5 440.833,179.5 440.5,179.5C 437.784,179.386 435.784,180.386 434.5,182.5C 433.5,182.5 432.5,182.5 431.5,182.5C 422.5,183.833 413.5,183.833 404.5,182.5C 403.5,182.5 402.5,182.5 401.5,182.5C 400.216,180.386 398.216,179.386 395.5,179.5C 395.179,177.952 394.179,177.285 392.5,177.5C 391.791,176.596 390.791,176.263 389.5,176.5C 389.5,174.5 388.5,173.5 386.5,173.5C 386.19,171.856 385.19,170.856 383.5,170.5C 383.144,168.81 382.144,167.81 380.5,167.5C 380.5,165.5 379.5,164.5 377.5,164.5C 376.112,160.427 374.112,156.761 371.5,153.5C 371.5,153.167 371.5,152.833 371.5,152.5C 371.443,148.971 370.443,145.971 368.5,143.5C 368.5,137.833 368.5,132.167 368.5,126.5C 369.117,126.389 369.617,126.056 370,125.5C 370.495,123.527 370.662,121.527 370.5,119.5C 371.404,118.791 371.737,117.791 371.5,116.5C 373.245,114.967 374.245,112.967 374.5,110.5C 374.5,110.167 374.5,109.833 374.5,109.5C 376.446,108.965 377.446,107.632 377.5,105.5C 379.229,104.764 380.229,103.43 380.5,101.5C 382.5,101.5 383.5,100.5 383.5,98.5C 385.573,97.7005 387.24,96.3671 388.5,94.5C 390.179,94.7148 391.179,94.0481 391.5,92.5C 393.846,91.4767 396.179,90.4767 398.5,89.5C 400.728,89.2231 402.395,88.2231 403.5,86.5C 404.167,86.5 404.833,86.5 405.5,86.5C 412.137,85.7243 418.804,85.391 425.5,85.5 Z M 135.5,197.5 C 139.5,197.5 143.5,197.5 147.5,197.5C 149.635,199.369 152.302,200.036 155.5,199.5C 156.568,200.434 157.901,200.768 159.5,200.5C 159.47,201.497 159.97,202.164 161,202.5C 164.111,204.023 167.277,205.357 170.5,206.5C 170.5,208.5 171.5,209.5 173.5,209.5C 175.833,211.167 177.833,213.167 179.5,215.5C 179.5,217.5 180.5,218.5 182.5,218.5C 182.5,218.833 182.5,219.167 182.5,219.5C 182.799,221.455 183.799,222.789 185.5,223.5C 185.5,223.833 185.5,224.167 185.5,224.5C 185.592,226.848 186.592,228.514 188.5,229.5C 188.5,229.833 188.5,230.167 188.5,230.5C 188.611,234.642 189.611,238.308 191.5,241.5C 191.5,245.5 191.5,249.5 191.5,253.5C 190.883,253.611 190.383,253.944 190,254.5C 189.498,257.513 188.998,260.513 188.5,263.5C 188.5,264.167 188.5,264.833 188.5,265.5C 186.824,266.183 186.157,267.517 186.5,269.5C 185.833,270.5 185.167,271.5 184.5,272.5C 183.094,272.973 182.427,273.973 182.5,275.5C 182.5,275.833 182.5,276.167 182.5,276.5C 178.5,279.833 174.833,283.5 171.5,287.5C 170.833,287.5 170.5,287.833 170.5,288.5C 168.821,288.285 167.821,288.952 167.5,290.5C 167.167,290.5 166.833,290.5 166.5,290.5C 164.326,290.75 162.659,291.75 161.5,293.5C 161.167,293.5 160.833,293.5 160.5,293.5C 157.615,293.643 155.282,294.643 153.5,296.5C 152.833,296.5 152.167,296.5 151.5,296.5C 144.833,296.5 138.167,296.5 131.5,296.5C 130.833,296.5 130.167,296.5 129.5,296.5C 127.718,294.643 125.385,293.643 122.5,293.5C 122.167,293.5 121.833,293.5 121.5,293.5C 120.341,291.75 118.674,290.75 116.5,290.5C 116.167,290.5 115.833,290.5 115.5,290.5C 114.965,288.554 113.632,287.554 111.5,287.5C 110.833,287.5 110.5,287.167 110.5,286.5C 110.027,285.094 109.027,284.427 107.5,284.5C 107.5,282.5 106.5,281.5 104.5,281.5C 104.573,279.973 103.906,278.973 102.5,278.5C 102.167,278.5 101.833,278.5 101.5,278.5C 101.741,275.966 100.741,274.3 98.5,273.5C 98.5,273.167 98.5,272.833 98.5,272.5C 98.2503,270.326 97.2503,268.659 95.5,267.5C 95.5,267.167 95.5,266.833 95.5,266.5C 95.357,263.615 94.357,261.282 92.5,259.5C 92.5,258.833 92.5,258.167 92.5,257.5C 91.6367,250.932 91.6367,244.265 92.5,237.5C 92.5,236.833 92.5,236.167 92.5,235.5C 94.256,234.448 94.9227,232.781 94.5,230.5C 95.404,229.791 95.7373,228.791 95.5,227.5C 97.539,226.089 98.539,224.089 98.5,221.5C 100.048,221.179 100.715,220.179 100.5,218.5C 101.167,218.5 101.5,218.167 101.5,217.5C 105.5,214.167 109.167,210.5 112.5,206.5C 112.833,206.5 113.167,206.5 113.5,206.5C 115.5,206.5 116.5,205.5 116.5,203.5C 117.791,203.737 118.791,203.404 119.5,202.5C 121.483,202.843 122.817,202.176 123.5,200.5C 124.167,200.5 124.833,200.5 125.5,200.5C 128.487,200.002 131.487,199.502 134.5,199C 135.056,198.617 135.389,198.117 135.5,197.5 Z M 135.5,359.5 C 139.167,359.5 142.833,359.5 146.5,359.5C 146.611,360.117 146.944,360.617 147.5,361C 150.146,361.497 152.813,361.664 155.5,361.5C 156.568,362.434 157.901,362.768 159.5,362.5C 160.486,364.408 162.152,365.408 164.5,365.5C 167.32,367.745 170.32,369.745 173.5,371.5C 173.5,373.5 174.5,374.5 176.5,374.5C 176.5,376.5 177.5,377.5 179.5,377.5C 179.5,377.833 179.5,378.167 179.5,378.5C 181.211,381.522 183.211,384.189 185.5,386.5C 185.263,387.791 185.596,388.791 186.5,389.5C 186.12,391.698 186.787,393.365 188.5,394.5C 188.5,394.833 188.5,395.167 188.5,395.5C 189.801,404.507 189.801,413.507 188.5,422.5C 188.5,423.167 188.5,423.833 188.5,424.5C 186.755,426.033 185.755,428.033 185.5,430.5C 185.5,430.833 185.5,431.167 185.5,431.5C 183.592,432.486 182.592,434.152 182.5,436.5C 182.5,437.167 182.167,437.5 181.5,437.5C 180.094,437.973 179.427,438.973 179.5,440.5C 177.952,440.821 177.285,441.821 177.5,443.5C 175.859,444.147 174.526,445.147 173.5,446.5C 171.81,446.856 170.81,447.856 170.5,449.5C 166.754,451.03 163.42,453.03 160.5,455.5C 159.833,455.5 159.167,455.5 158.5,455.5C 155.615,455.643 153.282,456.643 151.5,458.5C 150.833,458.5 150.167,458.5 149.5,458.5C 143.5,458.5 137.5,458.5 131.5,458.5C 130.833,458.5 130.167,458.5 129.5,458.5C 127.718,456.643 125.385,455.643 122.5,455.5C 121.833,455.5 121.167,455.5 120.5,455.5C 119.789,453.799 118.455,452.799 116.5,452.5C 116.167,452.5 115.833,452.5 115.5,452.5C 114.564,451.026 113.23,450.026 111.5,449.5C 111.167,449.5 110.833,449.5 110.5,449.5C 110.19,447.856 109.19,446.856 107.5,446.5C 105.111,444.778 103.111,442.778 101.5,440.5C 101.573,438.973 100.906,437.973 99.5,437.5C 98.8333,437.5 98.5,437.167 98.5,436.5C 98.4077,434.152 97.4077,432.486 95.5,431.5C 95.5358,428.539 94.5358,426.206 92.5,424.5C 93.0102,421.612 92.3435,419.279 90.5,417.5C 90.5,414.833 90.5,412.167 90.5,409.5C 91.2476,405.188 91.9143,400.854 92.5,396.5C 92.5,395.833 92.5,395.167 92.5,394.5C 94.256,393.448 94.9227,391.781 94.5,389.5C 95.404,388.791 95.7373,387.791 95.5,386.5C 97.5,386.5 98.5,385.5 98.5,383.5C 98.5,383.167 98.5,382.833 98.5,382.5C 100.446,381.965 101.446,380.632 101.5,378.5C 103.833,376.167 106.167,373.833 108.5,371.5C 110.632,371.446 111.965,370.446 112.5,368.5C 112.833,368.5 113.167,368.5 113.5,368.5C 115.179,368.715 116.179,368.048 116.5,366.5C 117.5,365.833 118.5,365.167 119.5,364.5C 121.483,364.843 122.817,364.176 123.5,362.5C 124.167,362.5 124.833,362.5 125.5,362.5C 129.332,362.413 132.665,361.413 135.5,359.5 Z M 268.5,476.5 C 268.833,476.5 269.167,476.5 269.5,476.5C 271.033,478.245 273.033,479.245 275.5,479.5C 275.833,479.5 276.167,479.5 276.5,479.5C 277.659,481.25 279.326,482.25 281.5,482.5C 282.526,483.853 283.859,484.853 285.5,485.5C 287.833,488.5 290.5,491.167 293.5,493.5C 293.5,494.167 293.833,494.5 294.5,494.5C 294.285,496.179 294.952,497.179 296.5,497.5C 296.592,499.848 297.592,501.514 299.5,502.5C 299.5,502.833 299.5,503.167 299.5,503.5C 299.621,506.105 300.621,508.105 302.5,509.5C 302.5,510.5 302.5,511.5 302.5,512.5C 303.79,520.505 303.79,528.505 302.5,536.5C 302.5,537.167 302.5,537.833 302.5,538.5C 300.552,540.32 299.552,542.654 299.5,545.5C 299.5,545.833 299.5,546.167 299.5,546.5C 297.554,547.035 296.554,548.368 296.5,550.5C 296.5,550.833 296.5,551.167 296.5,551.5C 294.952,551.821 294.285,552.821 294.5,554.5C 293.833,554.5 293.5,554.833 293.5,555.5C 290.167,557.5 287.5,560.167 285.5,563.5C 284.833,563.5 284.5,563.833 284.5,564.5C 282.821,564.285 281.821,564.952 281.5,566.5C 281.167,566.5 280.833,566.5 280.5,566.5C 278.545,566.799 277.211,567.799 276.5,569.5C 276.167,569.5 275.833,569.5 275.5,569.5C 272.654,569.552 270.32,570.552 268.5,572.5C 267.833,572.5 267.167,572.5 266.5,572.5C 255.136,574.438 244.136,573.438 233.5,569.5C 233.167,569.5 232.833,569.5 232.5,569.5C 231.789,567.799 230.455,566.799 228.5,566.5C 228.167,566.5 227.833,566.5 227.5,566.5C 227.027,565.094 226.027,564.427 224.5,564.5C 224.5,563.833 224.167,563.5 223.5,563.5C 220.167,559.5 216.5,555.833 212.5,552.5C 212.5,552.167 212.5,551.833 212.5,551.5C 212.25,549.326 211.25,547.659 209.5,546.5C 209.5,546.167 209.5,545.833 209.5,545.5C 209.408,543.152 208.408,541.486 206.5,540.5C 206.5,540.167 206.5,539.833 206.5,539.5C 205.229,529.822 205.229,520.155 206.5,510.5C 206.5,509.833 206.5,509.167 206.5,508.5C 208.256,507.448 208.923,505.781 208.5,503.5C 209.404,502.791 209.737,501.791 209.5,500.5C 211.5,500.5 212.5,499.5 212.5,497.5C 212.5,497.167 212.5,496.833 212.5,496.5C 214.446,495.965 215.446,494.632 215.5,492.5C 217.833,490.167 220.167,487.833 222.5,485.5C 224.632,485.446 225.965,484.446 226.5,482.5C 226.833,482.5 227.167,482.5 227.5,482.5C 229.19,482.144 230.19,481.144 230.5,479.5C 231.5,479.5 232.5,479.5 233.5,479.5C 235.728,479.223 237.395,478.223 238.5,476.5C 239.167,476.5 239.833,476.5 240.5,476.5C 249.826,475.198 259.16,475.198 268.5,476.5 Z"/></g>
<g><path style="opacity:1" fill="#333333" d="M 640.5,397.5 C 640.5,391.5 640.5,385.5 640.5,379.5C 642.462,368.317 645.962,357.65 651,347.5C 670.563,312.265 692.563,278.598 717,246.5C 757.588,194.046 802.088,144.88 850.5,99C 877.187,74.6463 904.187,50.6463 931.5,27C 942.728,20.7235 951.894,22.8902 959,33.5C 961,39.1667 961,44.8333 959,50.5C 932.052,109.774 902.052,167.44 869,223.5C 834.027,280.47 794.361,333.803 750,383.5C 735.255,399.591 718.755,413.424 700.5,425C 686.225,431.782 672.558,430.782 659.5,422C 652.667,417.167 646.833,411.333 642,404.5C 641.338,402.187 640.838,399.854 640.5,397.5 Z"/></g>
<g><path style="opacity:1" fill="#838383" d="M 245.5,84.5 C 245.5,84.8333 245.5,85.1667 245.5,85.5C 243.958,86.3007 242.292,86.634 240.5,86.5C 241.552,84.744 243.219,84.0773 245.5,84.5 Z"/></g>
<g><path style="opacity:1" fill="#d0d0d0" d="M 255.5,83.5 C 255.082,84.2216 254.416,84.7216 253.5,85C 250.854,85.4974 248.187,85.6641 245.5,85.5C 245.5,85.1667 245.5,84.8333 245.5,84.5C 248.786,83.7929 252.119,83.4595 255.5,83.5 Z"/></g>
<g><path style="opacity:1" fill="#aaaaaa" d="M 257.5,83.5 C 261.535,83.3927 265.535,83.7261 269.5,84.5C 271.03,84.6399 272.03,85.3065 272.5,86.5C 268.196,85.8694 263.863,85.3694 259.5,85C 258.584,84.7216 257.918,84.2216 257.5,83.5 Z"/></g>
<g><path style="opacity:1" fill="#999999" d="M 425.5,84.5 C 425.5,84.8333 425.5,85.1667 425.5,85.5C 418.804,85.391 412.137,85.7243 405.5,86.5C 405.611,85.8826 405.944,85.3826 406.5,85C 412.825,84.5005 419.158,84.3338 425.5,84.5 Z"/></g>
<g><path style="opacity:1" fill="#636363" d="M 425.5,84.5 C 428.374,84.4511 431.208,84.7844 434,85.5C 436.476,86.1448 438.309,87.4782 439.5,89.5C 434.732,88.1378 430.066,86.8044 425.5,85.5C 425.5,85.1667 425.5,84.8333 425.5,84.5 Z"/></g>
<g><path style="opacity:1" fill="#aeaeae" d="M 239.5,86.5 C 238.105,88.3794 236.105,89.3794 233.5,89.5C 234.784,87.3862 236.784,86.3862 239.5,86.5 Z"/></g>
<g><path style="opacity:1" fill="#c2c2c2" d="M 273.5,86.5 C 275.848,86.5923 277.514,87.5923 278.5,89.5C 276.152,89.4077 274.486,88.4077 273.5,86.5 Z"/></g>
<g><path style="opacity:0.878" fill="#c2c2c2" d="M 403.5,86.5 C 402.395,88.2231 400.728,89.2231 398.5,89.5C 399.486,87.5923 401.152,86.5923 403.5,86.5 Z"/></g>
<g><path style="opacity:1" fill="#afafaf" d="M 232.5,89.5 C 231.965,91.4456 230.632,92.4456 228.5,92.5C 229.035,90.5544 230.368,89.5544 232.5,89.5 Z"/></g>
<g><path style="opacity:1" fill="#b7b7b7" d="M 440.5,89.5 C 441.71,89.9321 442.71,90.5987 443.5,91.5C 441.821,91.7148 440.821,91.0481 440.5,89.5 Z"/></g>
<g><path style="opacity:1" fill="#b2b2b2" d="M 279.5,89.5 C 281.848,89.5923 283.514,90.5923 284.5,92.5C 282.152,92.4077 280.486,91.4077 279.5,89.5 Z"/></g>
<g><path style="opacity:1" fill="#aeaeae" d="M 227.5,92.5 C 227.5,94.5 226.5,95.5 224.5,95.5C 224.81,93.8564 225.81,92.8564 227.5,92.5 Z"/></g>
<g><path style="opacity:1" fill="#c2c2c2" d="M 284.5,92.5 C 286.027,92.427 287.027,93.0937 287.5,94.5C 285.821,94.7148 284.821,94.0481 284.5,92.5 Z"/></g>
<g><path style="opacity:0.188" fill="#d7d7d7" d="M 391.5,92.5 C 391.179,94.0481 390.179,94.7148 388.5,94.5C 388.973,93.0937 389.973,92.427 391.5,92.5 Z"/></g>
<g><path style="opacity:1" fill="#adadad" d="M 444.5,92.5 C 446.632,92.5544 447.965,93.5544 448.5,95.5C 446.77,94.9744 445.436,93.9744 444.5,92.5 Z"/></g>
<g><path style="opacity:1" fill="#bfbfbf" d="M 224.5,95.5 C 224.19,97.1436 223.19,98.1436 221.5,98.5C 221.5,96.5 222.5,95.5 224.5,95.5 Z"/></g>
<g><path style="opacity:1" fill="#a6a6a6" d="M 449.5,95.5 C 451.5,95.5 452.5,96.5 452.5,98.5C 452.5,96.5 451.5,95.5 449.5,95.5 Z"/></g>
<g><path style="opacity:1" fill="#939393" d="M 288.5,95.5 C 292.152,97.1522 294.819,99.8189 296.5,103.5C 293.167,101.5 290.5,98.8333 288.5,95.5 Z"/></g>
<g><path style="opacity:1" fill="#b3b3b3" d="M 220.5,98.5 C 220.573,100.027 219.906,101.027 218.5,101.5C 218.427,99.9731 219.094,98.9731 220.5,98.5 Z"/></g>
<g><path style="opacity:1" fill="#999999" d="M 383.5,98.5 C 383.5,100.5 382.5,101.5 380.5,101.5C 380.5,99.5 381.5,98.5 383.5,98.5 Z"/></g>
<g><path style="opacity:1" fill="#b3b3b3" d="M 452.5,98.5 C 454.5,98.5 455.5,99.5 455.5,101.5C 455.5,99.5 454.5,98.5 452.5,98.5 Z"/></g>
<g><path style="opacity:1" fill="#a2a2a2" d="M 455.5,101.5 C 457.144,101.81 458.144,102.81 458.5,104.5C 456.5,104.5 455.5,103.5 455.5,101.5 Z"/></g>
<g><path style="opacity:0.718" fill="#bcbcbc" d="M 218.5,101.5 C 218.144,103.19 217.144,104.19 215.5,104.5C 215.856,102.81 216.856,101.81 218.5,101.5 Z"/></g>
<g><path style="opacity:1" fill="#b3b3b3" d="M 296.5,104.5 C 298.144,104.81 299.144,105.81 299.5,107.5C 297.5,107.5 296.5,106.5 296.5,104.5 Z"/></g>
<g><path style="opacity:1" fill="#929292" d="M 377.5,105.5 C 377.446,107.632 376.446,108.965 374.5,109.5C 374.799,107.545 375.799,106.211 377.5,105.5 Z"/></g>
<g><path style="opacity:1" fill="#b3b3b3" d="M 215.5,105.5 C 214.974,107.23 213.974,108.564 212.5,109.5C 212.554,107.368 213.554,106.035 215.5,105.5 Z"/></g>
<g><path style="opacity:1" fill="#c6c6c6" d="M 459.5,107.5 C 460.833,107.5 461.5,108.167 461.5,109.5C 461.5,108.167 460.833,107.5 459.5,107.5 Z"/></g>
<g><path style="opacity:1" fill="#acacac" d="M 299.5,108.5 C 301.408,109.486 302.408,111.152 302.5,113.5C 300.592,112.514 299.592,110.848 299.5,108.5 Z"/></g>
<g><path style="opacity:1" fill="#c3c3c3" d="M 212.5,110.5 C 212.408,112.848 211.408,114.514 209.5,115.5C 209.592,113.152 210.592,111.486 212.5,110.5 Z"/></g>
<g><path style="opacity:1" fill="#b3b3b3" d="M 374.5,110.5 C 374.245,112.967 373.245,114.967 371.5,116.5C 371.386,113.784 372.386,111.784 374.5,110.5 Z"/></g>
<g><path style="opacity:1" fill="#c6c6c6" d="M 461.5,110.5 C 463.408,111.486 464.408,113.152 464.5,115.5C 462.592,114.514 461.592,112.848 461.5,110.5 Z"/></g>
<g><path style="opacity:1" fill="#7c7c7c" d="M 209.5,116.5 C 209.167,118.5 208.833,120.5 208.5,122.5C 208.167,122.5 207.833,122.5 207.5,122.5C 207.025,119.918 207.692,117.918 209.5,116.5 Z"/></g>
<g><path style="opacity:1" fill="#a1a1a1" d="M 464.5,116.5 C 466.693,118.522 467.693,121.189 467.5,124.5C 465.518,122.403 464.518,119.736 464.5,116.5 Z"/></g>
<g><path style="opacity:1" fill="#b2b2b2" d="M 302.5,114.5 C 304.482,116.597 305.482,119.264 305.5,122.5C 303.661,120.347 302.661,117.68 302.5,114.5 Z"/></g>
<g><path style="opacity:1" fill="#bebebe" d="M 370.5,119.5 C 370.662,121.527 370.495,123.527 370,125.5C 369.617,126.056 369.117,126.389 368.5,126.5C 368.41,123.848 369.076,121.515 370.5,119.5 Z"/></g>
<g><path style="opacity:0.071" fill="#d8d8d8" d="M 207.5,122.5 C 207.833,122.5 208.167,122.5 208.5,122.5C 208.923,124.781 208.256,126.448 206.5,127.5C 206.216,125.585 206.549,123.919 207.5,122.5 Z"/></g>
<g><path style="opacity:1" fill="#898989" d="M 305.5,125.5 C 306.816,128.087 307.483,131.087 307.5,134.5C 307.483,137.913 306.816,140.913 305.5,143.5C 305.5,137.5 305.5,131.5 305.5,125.5 Z"/></g>
<g><path style="opacity:1" fill="#6f6f6f" d="M 467.5,126.5 C 468.814,128.915 469.481,131.748 469.5,135C 469.481,138.252 468.814,141.085 467.5,143.5C 467.5,137.833 467.5,132.167 467.5,126.5 Z"/></g>
<g><path style="opacity:0.431" fill="#d1d1d1" d="M 206.5,140.5 C 208.308,141.918 208.975,143.918 208.5,146.5C 207.262,144.786 206.595,142.786 206.5,140.5 Z"/></g>
<g><path style="opacity:0.627" fill="#afafaf" d="M 368.5,143.5 C 370.443,145.971 371.443,148.971 371.5,152.5C 369.557,150.029 368.557,147.029 368.5,143.5 Z"/></g>
<g><path style="opacity:1" fill="#afafaf" d="M 467.5,144.5 C 467.977,147.917 466.977,150.584 464.5,152.5C 465.06,150.199 465.56,147.866 466,145.5C 466.383,144.944 466.883,144.611 467.5,144.5 Z"/></g>
<g><path style="opacity:1" fill="#afafaf" d="M 305.5,144.5 C 305.482,147.736 304.482,150.403 302.5,152.5C 303.06,150.199 303.56,147.866 304,145.5C 304.383,144.944 304.883,144.611 305.5,144.5 Z"/></g>
<g><path style="opacity:1" fill="#bababa" d="M 464.5,154.5 C 464.201,156.455 463.201,157.789 461.5,158.5C 461.799,156.545 462.799,155.211 464.5,154.5 Z"/></g>
<g><path style="opacity:1" fill="#767676" d="M 209.5,152.5 C 211.614,153.784 212.614,155.784 212.5,158.5C 210.769,157.015 209.769,155.015 209.5,152.5 Z"/></g>
<g><path style="opacity:1" fill="#cacaca" d="M 302.5,153.5 C 302.408,155.848 301.408,157.514 299.5,158.5C 299.592,156.152 300.592,154.486 302.5,153.5 Z"/></g>
<g><path style="opacity:1" fill="#b6b6b6" d="M 212.5,158.5 C 214.048,158.821 214.715,159.821 214.5,161.5C 213.599,160.71 212.932,159.71 212.5,158.5 Z"/></g>
<g><path style="opacity:1" fill="#808080" d="M 371.5,153.5 C 374.112,156.761 376.112,160.427 377.5,164.5C 373.801,161.974 371.801,158.307 371.5,153.5 Z"/></g>
<g><path style="opacity:1" fill="#cccccc" d="M 299.5,159.5 C 299.5,160.833 298.833,161.5 297.5,161.5C 297.5,160.167 298.167,159.5 299.5,159.5 Z"/></g>
<g><path style="opacity:1" fill="#acacac" d="M 461.5,159.5 C 461.25,161.674 460.25,163.341 458.5,164.5C 458.75,162.326 459.75,160.659 461.5,159.5 Z"/></g>
<g><path style="opacity:1" fill="#b4b4b4" d="M 458.5,164.5 C 458.573,166.027 457.906,167.027 456.5,167.5C 456.285,165.821 456.952,164.821 458.5,164.5 Z"/></g>
<g><path style="opacity:1" fill="#a7a7a7" d="M 215.5,162.5 C 217.446,163.035 218.446,164.368 218.5,166.5C 216.554,165.965 215.554,164.632 215.5,162.5 Z"/></g>
<g><path style="opacity:1" fill="#9c9c9c" d="M 296.5,164.5 C 296.144,166.19 295.144,167.19 293.5,167.5C 293.5,165.5 294.5,164.5 296.5,164.5 Z"/></g>
<g><path style="opacity:1" fill="#9e9e9e" d="M 377.5,164.5 C 379.5,164.5 380.5,165.5 380.5,167.5C 378.5,167.5 377.5,166.5 377.5,164.5 Z"/></g>
<g><path style="opacity:1" fill="#bebebe" d="M 380.5,167.5 C 382.144,167.81 383.144,168.81 383.5,170.5C 381.5,170.5 380.5,169.5 380.5,167.5 Z"/></g>
<g><path style="opacity:1" fill="#a7a7a7" d="M 293.5,167.5 C 293.144,169.19 292.144,170.19 290.5,170.5C 290.856,168.81 291.856,167.81 293.5,167.5 Z"/></g>
<g><path style="opacity:1" fill="#9e9e9e" d="M 290.5,170.5 C 290.19,172.144 289.19,173.144 287.5,173.5C 287.81,171.856 288.81,170.856 290.5,170.5 Z"/></g>
<g><path style="opacity:1" fill="#adadad" d="M 383.5,170.5 C 385.19,170.856 386.19,171.856 386.5,173.5C 384.5,173.5 383.5,172.5 383.5,170.5 Z"/></g>
<g><path style="opacity:1" fill="#929292" d="M 224.5,171.5 C 226.549,172.882 228.215,174.548 229.5,176.5C 226.603,176.019 224.936,174.352 224.5,171.5 Z"/></g>
<g><path style="opacity:1" fill="#959595" d="M 386.5,173.5 C 388.5,173.5 389.5,174.5 389.5,176.5C 387.81,176.144 386.81,175.144 386.5,173.5 Z"/></g>
<g><path style="opacity:1" fill="#ababab" d="M 449.5,173.5 C 449.19,175.144 448.19,176.144 446.5,176.5C 446.5,174.5 447.5,173.5 449.5,173.5 Z"/></g>
<g><path style="opacity:1" fill="#b8b8b8" d="M 286.5,173.5 C 285.965,175.446 284.632,176.446 282.5,176.5C 283.436,175.026 284.77,174.026 286.5,173.5 Z"/></g>
<g><path style="opacity:1" fill="#939393" d="M 445.5,176.5 C 444.789,178.201 443.455,179.201 441.5,179.5C 442.035,177.554 443.368,176.554 445.5,176.5 Z"/></g>
<g><path style="opacity:1" fill="#b7b7b7" d="M 230.5,176.5 C 232.848,176.592 234.514,177.592 235.5,179.5C 233.152,179.408 231.486,178.408 230.5,176.5 Z"/></g>
<g><path style="opacity:1" fill="#d2d2d2" d="M 392.5,177.5 C 394.179,177.285 395.179,177.952 395.5,179.5C 393.973,179.573 392.973,178.906 392.5,177.5 Z"/></g>
<g><path style="opacity:1" fill="#b3b3b3" d="M 236.5,179.5 C 239.385,179.643 241.718,180.643 243.5,182.5C 240.615,182.357 238.282,181.357 236.5,179.5 Z"/></g>
<g><path style="opacity:1" fill="#afafaf" d="M 275.5,179.5 C 274.216,181.614 272.216,182.614 269.5,182.5C 270.895,180.621 272.895,179.621 275.5,179.5 Z"/></g>
<g><path style="opacity:1" fill="#999999" d="M 440.5,179.5 C 439.015,181.231 437.015,182.231 434.5,182.5C 435.784,180.386 437.784,179.386 440.5,179.5 Z"/></g>
<g><path style="opacity:1" fill="#959595" d="M 395.5,179.5 C 398.216,179.386 400.216,180.386 401.5,182.5C 398.895,182.379 396.895,181.379 395.5,179.5 Z"/></g>
<g><path style="opacity:1" fill="#979797" d="M 245.5,182.5 C 252.504,183.768 259.504,183.768 266.5,182.5C 262.797,184.055 258.797,184.722 254.5,184.5C 251.087,184.483 248.087,183.816 245.5,182.5 Z"/></g>
<g><path style="opacity:1" fill="#b3b3b3" d="M 404.5,182.5 C 413.5,183.833 422.5,183.833 431.5,182.5C 431.03,183.693 430.03,184.36 428.5,184.5C 421.5,185.833 414.5,185.833 407.5,184.5C 405.97,184.36 404.97,183.693 404.5,182.5 Z"/></g>
<g><path style="opacity:1" fill="#b1b1b1" d="M 135.5,197.5 C 135.389,198.117 135.056,198.617 134.5,199C 131.487,199.502 128.487,200.002 125.5,200.5C 125.97,199.307 126.97,198.64 128.5,198.5C 130.818,198.003 133.152,197.67 135.5,197.5 Z"/></g>
<g><path style="opacity:1" fill="#bababa" d="M 147.5,197.5 C 150.495,197.294 153.162,197.96 155.5,199.5C 152.302,200.036 149.635,199.369 147.5,197.5 Z"/></g>
<g><path style="opacity:1" fill="#acacac" d="M 123.5,200.5 C 122.817,202.176 121.483,202.843 119.5,202.5C 120.287,200.896 121.62,200.229 123.5,200.5 Z"/></g>
<g><path style="opacity:1" fill="#818181" d="M 159.5,200.5 C 164.307,200.801 167.974,202.801 170.5,206.5C 167.277,205.357 164.111,204.023 161,202.5C 159.97,202.164 159.47,201.497 159.5,200.5 Z"/></g>
<g><path style="opacity:1" fill="#b1b1b1" d="M 116.5,203.5 C 116.5,205.5 115.5,206.5 113.5,206.5C 113.81,204.856 114.81,203.856 116.5,203.5 Z"/></g>
<g><path style="opacity:1" fill="#bdbdbd" d="M 170.5,206.5 C 172.19,206.856 173.19,207.856 173.5,209.5C 171.5,209.5 170.5,208.5 170.5,206.5 Z"/></g>
<g><path style="opacity:1" fill="#a8a8a8" d="M 112.5,206.5 C 109.167,210.5 105.5,214.167 101.5,217.5C 103.819,212.514 107.486,208.848 112.5,206.5 Z"/></g>
<g><path style="opacity:1" fill="#aaaaaa" d="M 179.5,215.5 C 181.5,215.5 182.5,216.5 182.5,218.5C 182.5,216.5 181.5,215.5 179.5,215.5 Z"/></g>
<g><path style="opacity:1" fill="#c2c2c2" d="M 100.5,218.5 C 100.715,220.179 100.048,221.179 98.5,221.5C 98.427,219.973 99.0937,218.973 100.5,218.5 Z"/></g>
<g><path style="opacity:0.627" fill="#bcbcbc" d="M 182.5,219.5 C 184.446,220.035 185.446,221.368 185.5,223.5C 183.799,222.789 182.799,221.455 182.5,219.5 Z"/></g>
<g><path style="opacity:1" fill="#a8a8a8" d="M 98.5,221.5 C 98.539,224.089 97.539,226.089 95.5,227.5C 95.3862,224.784 96.3862,222.784 98.5,221.5 Z"/></g>
<g><path style="opacity:1" fill="#b4b4b4" d="M 185.5,224.5 C 187.408,225.486 188.408,227.152 188.5,229.5C 186.592,228.514 185.592,226.848 185.5,224.5 Z"/></g>
<g><path style="opacity:0.502" fill="#cccccc" d="M 94.5,230.5 C 94.9227,232.781 94.256,234.448 92.5,235.5C 92.7959,233.597 93.4625,231.93 94.5,230.5 Z"/></g>
<g><path style="opacity:1" fill="#a8a8a8" d="M 188.5,230.5 C 189.693,230.97 190.36,231.97 190.5,233.5C 191.095,236.14 191.428,238.807 191.5,241.5C 191.428,238.807 191.095,236.14 190.5,233.5C 190.36,231.97 189.693,230.97 188.5,230.5 Z"/></g>
<g><path style="opacity:1" fill="#8e8e8e" d="M 92.5,237.5 C 91.6367,244.265 91.6367,250.932 92.5,257.5C 91.1818,254.742 90.5152,251.576 90.5,248C 90.6667,244.833 90.8333,241.667 91,238.5C 91.3826,237.944 91.8826,237.611 92.5,237.5 Z"/></g>
<g><path style="opacity:1" fill="#b5b5b5" d="M 191.5,253.5 C 191.33,255.848 190.997,258.182 190.5,260.5C 190.36,262.03 189.693,263.03 188.5,263.5C 188.998,260.513 189.498,257.513 190,254.5C 190.383,253.944 190.883,253.611 191.5,253.5 Z"/></g>
<g><path style="opacity:1" fill="#b1b1b1" d="M 92.5,259.5 C 94.357,261.282 95.357,263.615 95.5,266.5C 93.179,264.91 92.179,262.577 92.5,259.5 Z"/></g>
<g><path style="opacity:1" fill="#bcbcbc" d="M 188.5,265.5 C 188.011,266.995 187.345,268.329 186.5,269.5C 186.157,267.517 186.824,266.183 188.5,265.5 Z"/></g>
<g><path style="opacity:1" fill="#b0b0b0" d="M 95.5,267.5 C 97.2503,268.659 98.2503,270.326 98.5,272.5C 96.5923,271.514 95.5923,269.848 95.5,267.5 Z"/></g>
<g><path style="opacity:1" fill="#c5c5c5" d="M 184.5,272.5 C 184.715,274.179 184.048,275.179 182.5,275.5C 182.427,273.973 183.094,272.973 184.5,272.5 Z"/></g>
<g><path style="opacity:1" fill="#7f7f7f" d="M 98.5,273.5 C 100.741,274.3 101.741,275.966 101.5,278.5C 99.5923,277.514 98.5923,275.848 98.5,273.5 Z"/></g>
<g><path style="opacity:1" fill="#a3a3a3" d="M 102.5,278.5 C 103.906,278.973 104.573,279.973 104.5,281.5C 103.094,281.027 102.427,280.027 102.5,278.5 Z"/></g>
<g><path style="opacity:1" fill="#9a9a9a" d="M 104.5,281.5 C 106.5,281.5 107.5,282.5 107.5,284.5C 105.5,284.5 104.5,283.5 104.5,281.5 Z"/></g>
<g><path style="opacity:1" fill="#afafaf" d="M 182.5,276.5 C 179.812,281.188 176.145,284.855 171.5,287.5C 174.833,283.5 178.5,279.833 182.5,276.5 Z"/></g>
<g><path style="opacity:1" fill="#979797" d="M 107.5,284.5 C 109.027,284.427 110.027,285.094 110.5,286.5C 108.821,286.715 107.821,286.048 107.5,284.5 Z"/></g>
<g><path style="opacity:1" fill="#b4b4b4" d="M 111.5,287.5 C 113.632,287.554 114.965,288.554 115.5,290.5C 113.368,290.446 112.035,289.446 111.5,287.5 Z"/></g>
<g><path style="opacity:1" fill="#b0b0b0" d="M 170.5,288.5 C 170.027,289.906 169.027,290.573 167.5,290.5C 167.821,288.952 168.821,288.285 170.5,288.5 Z"/></g>
<g><path style="opacity:1" fill="#b3b3b3" d="M 116.5,290.5 C 118.674,290.75 120.341,291.75 121.5,293.5C 119.152,293.408 117.486,292.408 116.5,290.5 Z"/></g>
<g><path style="opacity:1" fill="#aeaeae" d="M 166.5,290.5 C 165.514,292.408 163.848,293.408 161.5,293.5C 162.659,291.75 164.326,290.75 166.5,290.5 Z"/></g>
<g><path style="opacity:1" fill="#ababab" d="M 122.5,293.5 C 125.385,293.643 127.718,294.643 129.5,296.5C 126.423,296.821 124.09,295.821 122.5,293.5 Z"/></g>
<g><path style="opacity:1" fill="#969696" d="M 160.5,293.5 C 158.718,295.357 156.385,296.357 153.5,296.5C 155.282,294.643 157.615,293.643 160.5,293.5 Z"/></g>
<g><path style="opacity:1" fill="#8c8c8c" d="M 131.5,296.5 C 138.167,296.5 144.833,296.5 151.5,296.5C 148.572,297.82 145.239,298.486 141.5,298.5C 137.761,298.486 134.428,297.82 131.5,296.5 Z"/></g>
<g><path style="opacity:1" fill="#c1c1c1" d="M 135.5,359.5 C 132.665,361.413 129.332,362.413 125.5,362.5C 125.97,361.307 126.97,360.64 128.5,360.5C 130.818,360.003 133.152,359.67 135.5,359.5 Z"/></g>
<g><path style="opacity:1" fill="#bcbcbc" d="M 146.5,359.5 C 149.829,359.215 152.829,359.882 155.5,361.5C 152.813,361.664 150.146,361.497 147.5,361C 146.944,360.617 146.611,360.117 146.5,359.5 Z"/></g>
<g><path style="opacity:1" fill="#b9b9b9" d="M 123.5,362.5 C 122.817,364.176 121.483,364.843 119.5,364.5C 120.514,363.326 121.847,362.66 123.5,362.5 Z"/></g>
<g><path style="opacity:1" fill="#a9a9a9" d="M 159.5,362.5 C 161.848,362.592 163.514,363.592 164.5,365.5C 162.152,365.408 160.486,364.408 159.5,362.5 Z"/></g>
<g><path style="opacity:0.2" fill="#757575" d="M 23.5,359.5 C 25.1745,362.507 25.8412,365.84 25.5,369.5C 24.4192,366.373 23.7526,363.04 23.5,359.5 Z"/></g>
<g><path style="opacity:1" fill="#cbcbcb" d="M 116.5,366.5 C 116.179,368.048 115.179,368.715 113.5,368.5C 113.821,366.952 114.821,366.285 116.5,366.5 Z"/></g>
<g><path style="opacity:1" fill="#9d9d9d" d="M 164.5,365.5 C 168.539,366.053 171.539,368.053 173.5,371.5C 170.32,369.745 167.32,367.745 164.5,365.5 Z"/></g>
<g><path style="opacity:1" fill="#aeaeae" d="M 112.5,368.5 C 111.965,370.446 110.632,371.446 108.5,371.5C 109.035,369.554 110.368,368.554 112.5,368.5 Z"/></g>
<g><path style="opacity:1" fill="#a6a6a6" d="M 173.5,371.5 C 175.5,371.5 176.5,372.5 176.5,374.5C 176.5,372.5 175.5,371.5 173.5,371.5 Z"/></g>
<g><path style="opacity:1" fill="#9c9c9c" d="M 176.5,374.5 C 178.5,374.5 179.5,375.5 179.5,377.5C 179.5,375.5 178.5,374.5 176.5,374.5 Z"/></g>
<g><path style="opacity:1" fill="#afafaf" d="M 101.5,378.5 C 101.446,380.632 100.446,381.965 98.5,382.5C 98.5544,380.368 99.5544,379.035 101.5,378.5 Z"/></g>
<g><path style="opacity:1" fill="#8c8c8c" d="M 179.5,378.5 C 182.934,379.977 184.934,382.643 185.5,386.5C 183.211,384.189 181.211,381.522 179.5,378.5 Z"/></g>
<g><path style="opacity:1" fill="#b4b4b4" d="M 98.5,383.5 C 98.5,385.5 97.5,386.5 95.5,386.5C 95.8564,384.81 96.8564,383.81 98.5,383.5 Z"/></g>
<g><path style="opacity:1" fill="#696969" d="M 640.5,379.5 C 640.5,385.5 640.5,391.5 640.5,397.5C 637.905,391.51 637.905,385.51 640.5,379.5 Z"/></g>
<g><path style="opacity:1" fill="#c9c9c9" d="M 94.5,389.5 C 94.9227,391.781 94.256,393.448 92.5,394.5C 92.7959,392.597 93.4625,390.93 94.5,389.5 Z"/></g>
<g><path style="opacity:1" fill="#c8c8c8" d="M 186.5,389.5 C 187.537,390.93 188.204,392.597 188.5,394.5C 186.787,393.365 186.12,391.698 186.5,389.5 Z"/></g>
<g><path style="opacity:1" fill="#979797" d="M 92.5,396.5 C 91.9143,400.854 91.2476,405.188 90.5,409.5C 88.9536,404.881 89.6203,400.548 92.5,396.5 Z"/></g>
<g><path style="opacity:1" fill="#333333" d="M 530.5,610.5 C 545.751,595.636 553.751,577.303 554.5,555.5C 555.117,555.389 555.617,555.056 556,554.5C 556.498,551.518 556.665,548.518 556.5,545.5C 557.098,522.505 557.598,499.505 558,476.5C 559.075,458.449 564.241,441.783 573.5,426.5C 584.243,413.304 598.077,405.637 615,403.5C 618.9,415.269 625.4,425.435 634.5,434C 643.235,441.028 652.568,447.028 662.5,452C 667.746,452.975 672.913,454.141 678,455.5C 675.825,485.022 668.158,513.022 655,539.5C 637.291,570.364 611.458,591.198 577.5,602C 569.931,604.318 562.265,606.318 554.5,608C 546.497,608.882 538.497,609.715 530.5,610.5 Z"/></g>
<g><path style="opacity:1" fill="#9d9d9d" d="M 188.5,395.5 C 189.693,395.97 190.36,396.97 190.5,398.5C 191.833,405.5 191.833,412.5 190.5,419.5C 190.36,421.03 189.693,422.03 188.5,422.5C 189.801,413.507 189.801,404.507 188.5,395.5 Z"/></g>
<g><path style="opacity:1" fill="#b2b2b2" d="M 90.5,417.5 C 92.3435,419.279 93.0102,421.612 92.5,424.5C 91.3882,422.401 90.7215,420.067 90.5,417.5 Z"/></g>
<g><path style="opacity:1" fill="#939393" d="M 188.5,424.5 C 188.379,427.105 187.379,429.105 185.5,430.5C 185.755,428.033 186.755,426.033 188.5,424.5 Z"/></g>
<g><path style="opacity:1" fill="#858585" d="M 92.5,424.5 C 94.5358,426.206 95.5358,428.539 95.5,431.5C 93.7669,429.645 92.7669,427.312 92.5,424.5 Z"/></g>
<g><path style="opacity:1" fill="#b4b4b4" d="M 185.5,431.5 C 185.25,433.674 184.25,435.341 182.5,436.5C 182.592,434.152 183.592,432.486 185.5,431.5 Z"/></g>
<g><path style="opacity:1" fill="#949494" d="M 95.5,431.5 C 97.4077,432.486 98.4077,434.152 98.5,436.5C 96.5923,435.514 95.5923,433.848 95.5,431.5 Z"/></g>
<g><path style="opacity:1" fill="#aaaaaa" d="M 99.5,437.5 C 100.906,437.973 101.573,438.973 101.5,440.5C 99.9519,440.179 99.2852,439.179 99.5,437.5 Z"/></g>
<g><path style="opacity:1" fill="#adadad" d="M 181.5,437.5 C 181.715,439.179 181.048,440.179 179.5,440.5C 179.427,438.973 180.094,437.973 181.5,437.5 Z"/></g>
<g><path style="opacity:1" fill="#bfbfbf" d="M 179.5,440.5 C 179.573,442.027 178.906,443.027 177.5,443.5C 177.285,441.821 177.952,440.821 179.5,440.5 Z"/></g>
<g><path style="opacity:1" fill="#a3a3a3" d="M 107.5,446.5 C 109.19,446.856 110.19,447.856 110.5,449.5C 108.5,449.5 107.5,448.5 107.5,446.5 Z"/></g>
<g><path style="opacity:1" fill="#a7a7a7" d="M 173.5,446.5 C 173.5,448.5 172.5,449.5 170.5,449.5C 170.81,447.856 171.81,446.856 173.5,446.5 Z"/></g>
<g><path style="opacity:1" fill="#bdbdbd" d="M 111.5,449.5 C 113.23,450.026 114.564,451.026 115.5,452.5C 113.368,452.446 112.035,451.446 111.5,449.5 Z"/></g>
<g><path style="opacity:1" fill="#acacac" d="M 116.5,452.5 C 118.455,452.799 119.789,453.799 120.5,455.5C 118.368,455.446 117.035,454.446 116.5,452.5 Z"/></g>
<g><path style="opacity:1" fill="#7f7f7f" d="M 170.5,449.5 C 168.148,452.986 164.814,454.986 160.5,455.5C 163.42,453.03 166.754,451.03 170.5,449.5 Z"/></g>
<g><path style="opacity:1" fill="#ababab" d="M 122.5,455.5 C 125.385,455.643 127.718,456.643 129.5,458.5C 126.423,458.821 124.09,457.821 122.5,455.5 Z"/></g>
<g><path style="opacity:1" fill="#b0b0b0" d="M 158.5,455.5 C 156.91,457.821 154.577,458.821 151.5,458.5C 153.282,456.643 155.615,455.643 158.5,455.5 Z"/></g>
<g><path style="opacity:1" fill="#767676" d="M 131.5,458.5 C 137.5,458.5 143.5,458.5 149.5,458.5C 146.913,459.816 143.913,460.483 140.5,460.5C 137.087,460.483 134.087,459.816 131.5,458.5 Z"/></g>
<g><path style="opacity:1" fill="#b0b0b0" d="M 268.5,476.5 C 259.16,475.198 249.826,475.198 240.5,476.5C 244.192,474.067 248.359,473.067 253,473.5C 256.847,473.679 260.681,474.012 264.5,474.5C 266.333,474.585 267.666,475.252 268.5,476.5 Z"/></g>
<g><path style="opacity:1" fill="#bababa" d="M 238.5,476.5 C 237.395,478.223 235.728,479.223 233.5,479.5C 234.486,477.592 236.152,476.592 238.5,476.5 Z"/></g>
<g><path style="opacity:1" fill="#b6b6b6" d="M 269.5,476.5 C 272.216,476.386 274.216,477.386 275.5,479.5C 273.033,479.245 271.033,478.245 269.5,476.5 Z"/></g>
<g><path style="opacity:1" fill="#a5a5a5" d="M 230.5,479.5 C 230.19,481.144 229.19,482.144 227.5,482.5C 227.81,480.856 228.81,479.856 230.5,479.5 Z"/></g>
<g><path style="opacity:1" fill="#a5a5a5" d="M 276.5,479.5 C 278.848,479.592 280.514,480.592 281.5,482.5C 279.326,482.25 277.659,481.25 276.5,479.5 Z"/></g>
<g><path style="opacity:1" fill="#afafaf" d="M 226.5,482.5 C 225.965,484.446 224.632,485.446 222.5,485.5C 223.035,483.554 224.368,482.554 226.5,482.5 Z"/></g>
<g><path style="opacity:1" fill="#adadad" d="M 285.5,485.5 C 286.583,485.539 287.583,485.873 288.5,486.5C 290.961,488.29 292.627,490.623 293.5,493.5C 290.5,491.167 287.833,488.5 285.5,485.5 Z"/></g>
<g><path style="opacity:1" fill="#afafaf" d="M 215.5,492.5 C 215.446,494.632 214.446,495.965 212.5,496.5C 212.554,494.368 213.554,493.035 215.5,492.5 Z"/></g>
<g><path style="opacity:0.878" fill="#d0d0d0" d="M 294.5,494.5 C 295.906,494.973 296.573,495.973 296.5,497.5C 294.952,497.179 294.285,496.179 294.5,494.5 Z"/></g>
<g><path style="opacity:1" fill="#b4b4b4" d="M 212.5,497.5 C 212.5,499.5 211.5,500.5 209.5,500.5C 209.856,498.81 210.856,497.81 212.5,497.5 Z"/></g>
<g><path style="opacity:1" fill="#b1b1b1" d="M 296.5,497.5 C 298.408,498.486 299.408,500.152 299.5,502.5C 297.592,501.514 296.592,499.848 296.5,497.5 Z"/></g>
<g><path style="opacity:1" fill="#c9c9c9" d="M 208.5,503.5 C 208.923,505.781 208.256,507.448 206.5,508.5C 206.796,506.597 207.463,504.93 208.5,503.5 Z"/></g>
<g><path style="opacity:1" fill="#a6a6a6" d="M 299.5,503.5 C 301.614,504.784 302.614,506.784 302.5,509.5C 300.621,508.105 299.621,506.105 299.5,503.5 Z"/></g>
<g><path style="opacity:1" fill="#adadad" d="M 206.5,510.5 C 205.229,520.155 205.229,529.822 206.5,539.5C 205.235,538.486 204.569,536.986 204.5,535C 203.534,528.516 203.368,522.016 204,515.5C 204.374,513.509 205.207,511.842 206.5,510.5 Z"/></g>
<g><path style="opacity:1" fill="#a3a3a3" d="M 302.5,512.5 C 303.222,512.918 303.722,513.584 304,514.5C 304.167,518.167 304.333,521.833 304.5,525.5C 304.489,529.565 303.822,533.232 302.5,536.5C 303.79,528.505 303.79,520.505 302.5,512.5 Z"/></g>
<g><path style="opacity:1" fill="#bfbfbf" d="M 206.5,540.5 C 208.408,541.486 209.408,543.152 209.5,545.5C 207.592,544.514 206.592,542.848 206.5,540.5 Z"/></g>
<g><path style="opacity:1" fill="#949494" d="M 302.5,538.5 C 302.357,541.385 301.357,543.718 299.5,545.5C 299.552,542.654 300.552,540.32 302.5,538.5 Z"/></g>
<g><path style="opacity:1" fill="#aeaeae" d="M 209.5,546.5 C 211.25,547.659 212.25,549.326 212.5,551.5C 210.592,550.514 209.592,548.848 209.5,546.5 Z"/></g>
<g><path style="opacity:1" fill="#979797" d="M 299.5,546.5 C 299.446,548.632 298.446,549.965 296.5,550.5C 296.554,548.368 297.554,547.035 299.5,546.5 Z"/></g>
<g><path style="opacity:1" fill="#b1b1b1" d="M 296.5,551.5 C 296.068,552.71 295.401,553.71 294.5,554.5C 294.285,552.821 294.952,551.821 296.5,551.5 Z"/></g>
<g><path style="opacity:0.322" fill="#747474" d="M 556.5,545.5 C 556.665,548.518 556.498,551.518 556,554.5C 555.617,555.056 555.117,555.389 554.5,555.5C 555.01,552.017 555.677,548.684 556.5,545.5 Z"/></g>
<g><path style="opacity:1" fill="#9f9f9f" d="M 212.5,552.5 C 216.5,555.833 220.167,559.5 223.5,563.5C 218.514,561.181 214.848,557.514 212.5,552.5 Z"/></g>
<g><path style="opacity:1" fill="#a1a1a1" d="M 293.5,555.5 C 291.833,559.167 289.167,561.833 285.5,563.5C 287.5,560.167 290.167,557.5 293.5,555.5 Z"/></g>
<g><path style="opacity:1" fill="#bebebe" d="M 224.5,564.5 C 226.027,564.427 227.027,565.094 227.5,566.5C 225.973,566.573 224.973,565.906 224.5,564.5 Z"/></g>
<g><path style="opacity:1" fill="#a7a7a7" d="M 284.5,564.5 C 284.027,565.906 283.027,566.573 281.5,566.5C 281.821,564.952 282.821,564.285 284.5,564.5 Z"/></g>
<g><path style="opacity:1" fill="#a5a5a5" d="M 280.5,566.5 C 279.965,568.446 278.632,569.446 276.5,569.5C 277.211,567.799 278.545,566.799 280.5,566.5 Z"/></g>
<g><path style="opacity:1" fill="#b5b5b5" d="M 228.5,566.5 C 230.455,566.799 231.789,567.799 232.5,569.5C 230.027,569.912 228.694,568.912 228.5,566.5 Z"/></g>
<g><path style="opacity:1" fill="#a9a9a9" d="M 275.5,569.5 C 273.718,571.357 271.385,572.357 268.5,572.5C 270.32,570.552 272.654,569.552 275.5,569.5 Z"/></g>
<g><path style="opacity:1" fill="#9e9e9e" d="M 233.5,569.5 C 244.136,573.438 255.136,574.438 266.5,572.5C 262.628,574.182 258.461,575.182 254,575.5C 248.855,574.538 243.688,573.704 238.5,573C 236.24,572.451 234.574,571.284 233.5,569.5 Z"/></g>
<g><path style="opacity:0.055" fill="#8a8b8a" d="M 530.5,610.5 C 529.833,611.167 529.833,611.167 530.5,610.5 Z"/></g>
</svg>
